HIERARCHY
ROOT hip
{
	OFFSET 0.000000 0.000000 0.000000
	CHANNELS 6 Xposition Yposition Zposition Xrotation Zrotation Yrotation 
	JOINT abdomen
	{
		OFFSET 0.000000 3.422050 0.000000
		CHANNELS 3 Xrotation Zrotation Yrotation 
		JOINT chest
		{
			OFFSET 0.000000 8.486693 -0.684411
			CHANNELS 3 Xrotation Zrotation Yrotation 
			JOINT neck
			{
				OFFSET 0.000000 10.266162 -0.273764
				CHANNELS 3 Xrotation Zrotation Yrotation 
				JOINT head
				{
					OFFSET 0.000000 3.148285 0.000000
					CHANNELS 3 Xrotation Zrotation Yrotation 
					End Site
					{
						OFFSET 0.000000 3.148289 0.000000
					}
				}
			}
			JOINT lCollar
			{
				OFFSET 3.422053 6.707223 -0.821293
				CHANNELS 3 Yrotation Zrotation Xrotation 
				JOINT lShldr
				{
					OFFSET 3.285171 0.000000 0.000000
					CHANNELS 3 Zrotation Yrotation Xrotation 
					JOINT lForeArm
					{
						OFFSET 10.129278 0.000000 0.000000
						CHANNELS 3 Yrotation Zrotation Xrotation 
						JOINT lHand
						{
							OFFSET 8.486692 0.000000 0.000000
							CHANNELS 3 Zrotation Yrotation Xrotation 
							End Site
							{
								OFFSET 4.106464 0.000000 0.000000
							}
						}
					}
				}
			}
			JOINT rCollar
			{
				OFFSET -3.558935 6.707223 -0.821293
				CHANNELS 3 Yrotation Zrotation Xrotation 
				JOINT rShldr
				{
					OFFSET -3.148289 0.000000 0.000000
					CHANNELS 3 Zrotation Yrotation Xrotation 
					JOINT rForeArm
					{
						OFFSET -10.266159 0.000000 0.000000
						CHANNELS 3 Yrotation Zrotation Xrotation 
						JOINT rHand
						{
							OFFSET -8.349810 0.000000 0.000000
							CHANNELS 3 Zrotation Yrotation Xrotation 
							End Site
							{
								OFFSET -4.106464 0.000000 0.000000
							}
						}
					}
				}
			}
		}
	}
	JOINT lThigh
	{
		OFFSET 5.338403 -1.642589 1.368821
		CHANNELS 3 Xrotation Zrotation Yrotation 
		JOINT lShin
		{
			OFFSET -2.053232 -20.121670 0.000000
			CHANNELS 3 Xrotation Zrotation Yrotation 
			JOINT lFoot
			{
				OFFSET 0.000000 -19.300380 -1.231939
				CHANNELS 3 Xrotation Yrotation Zrotation 
				End Site
				{
					OFFSET 0.000000 -2.463878 4.653993
				}
			}
		}
	}
	JOINT rThigh
	{
		OFFSET -5.338403 -1.642589 1.368821
		CHANNELS 3 Xrotation Zrotation Yrotation 
		JOINT rShin
		{
			OFFSET 2.053232 -20.121670 0.000000
			CHANNELS 3 Xrotation Zrotation Yrotation 
			JOINT rFoot
			{
				OFFSET 0.000000 -19.300380 -1.231939
				CHANNELS 3 Xrotation Yrotation Zrotation 
				End Site
				{
					OFFSET 0.000000 -2.463878 4.653993
				}
			}
		}
	}
}
MOTION
Frames: 8
Frame Time: 0.050000
0.000000 43.528500 0.000000 0.000000 0.000000 0.000000 0.000000 0.000000 0.000000 0.000000 0.000000 0.000000 0.000000 0.000000 0.000000 0.000000 0.000000 0.000000 0.000000 0.000000 0.000000 0.000000 0.000000 0.000000 0.000000 0.000000 0.000000 0.000000 0.000000 0.000000 0.000000 0.000000 0.000000 0.000000 0.000000 0.000000 0.000000 0.000000 0.000000 0.000000 0.000000 0.000000 0.000000 0.000000 0.000000 0.000000 0.000000 0.000000 0.000000 0.000000 0.000000 0.000000 0.000000 0.000000 0.000000 0.000000 0.000000 0.000000 0.000000 0.000000 
-6.539153 23.676796 35.975769 71.306648 0.000001 -0.000001 51.217873 -0.916868 -0.809833 -31.373463 -0.641180 -0.827949 -24.367619 0.359407 -0.000681 -22.385519 0.211924 -0.000938 -9.596210 -11.639024 -2.068557 -42.705975 -64.104294 -36.677399 -40.767563 5.610097 54.071732 39.955704 -0.088398 7.223134 12.124887 10.559889 -1.910470 40.490646 61.407459 -37.556183 37.889324 -13.713361 51.184597 -34.972256 0.076169 7.235114 -105.462448 17.664122 -29.931753 119.766464 -7.589187 1.165075 14.086147 -2.727054 19.428505 -105.127174 -17.111570 30.271423 119.764732 7.509985 -1.175924 14.010124 2.577616 -18.598949 
-6.539153 23.676796 35.975769 71.306648 0.000001 -0.000001 50.646713 -0.916896 -0.810055 -30.162727 -0.640970 -0.827922 -23.298582 0.359384 -0.000854 -23.525232 0.211959 -0.000988 -9.727924 -11.354887 -2.468073 -42.705975 -64.104294 -36.677399 -40.767563 5.610097 54.071732 40.137897 0.038898 7.026455 12.283061 10.261395 -2.268015 40.490646 61.407459 -37.556183 37.889328 -13.713362 51.184605 -35.152824 -0.063068 7.004261 -105.462448 17.664124 -29.931757 119.766464 -7.589187 1.165075 14.086147 -2.727054 19.428505 -105.127174 -17.111570 30.271423 119.764748 7.509986 -1.175924 14.010124 2.577616 -18.598949 
-6.539153 23.676796 35.975769 71.306648 0.000001 -0.000001 50.075386 -0.916925 -0.810277 -28.950369 -0.640760 -0.827890 -22.228422 0.359366 -0.001028 -24.666306 0.211993 -0.001039 -9.857512 -11.069795 -2.866616 -42.705967 -64.104294 -36.677402 -40.767559 5.610094 54.071732 40.319675 0.166828 6.830166 12.439228 9.961875 -2.624461 40.490639 61.407452 -37.556175 37.889324 -13.713360 51.184597 -35.332844 -0.203044 6.773823 -105.462448 17.664122 -29.931753 119.766464 -7.589187 1.165075 14.086147 -2.727054 19.428503 -105.127174 -17.111570 30.271423 119.764732 7.509985 -1.175924 14.010124 2.577616 -18.598948 
-6.539153 23.676796 35.975769 71.306648 0.000001 -0.000001 49.503922 -0.916958 -0.810499 -27.736635 -0.640551 -0.827854 -21.157326 0.359350 -0.001203 -25.808527 0.212027 -0.001091 -9.984977 -10.783775 -3.264189 -42.705971 -64.104294 -36.677395 -40.767563 5.610097 54.071732 40.501022 0.295389 6.634270 12.593384 9.661355 -2.979815 40.490646 61.407459 -37.556183 37.889320 -13.713360 51.184597 -35.512321 -0.343754 6.543806 -105.462448 17.664122 -29.931753 119.766464 -7.589187 1.165075 14.086147 -2.727054 19.428505 -105.127174 -17.111570 30.271423 119.764732 7.509985 -1.175924 14.010124 2.577616 -18.598949 
-6.539153 23.676796 35.975769 71.306648 0.000001 -0.000001 48.932339 -0.916992 -0.810721 -26.521814 -0.640343 -0.827813 -20.085482 0.359337 -0.001378 -26.951651 0.212059 -0.001143 -10.110319 -10.496854 -3.660799 -42.705975 -64.104294 -36.677399 -40.767563 5.610098 54.071735 40.681938 0.424575 6.438766 12.745532 9.359859 -3.334083 40.490650 61.407467 -37.556187 37.889328 -13.713364 51.184601 -35.691250 -0.485192 6.314211 -105.462448 17.664122 -29.931753 119.766464 -7.589188 1.165075 14.086148 -2.727054 19.428505 -105.127174 -17.111570 30.271423 119.764732 7.509985 -1.175924 14.010124 2.577616 -18.598949 
-6.539153 23.676796 35.975769 71.306648 0.000001 -0.000001 48.360680 -0.917029 -0.810942 -25.306175 -0.640136 -0.827768 -19.013071 0.359328 -0.001553 -28.095453 0.212090 -0.001196 -10.233541 -10.209058 -4.056450 -42.705971 -64.104294 -36.677395 -40.767563 5.610098 54.071728 40.862434 0.554382 6.243662 12.895677 9.057411 -3.687274 40.490639 61.407459 -37.556175 37.889320 -13.713359 51.184593 -35.869621 -0.627352 6.085044 -105.462448 17.664120 -29.931753 119.766464 -7.589187 1.165075 14.086147 -2.727053 19.428505 -105.127174 -17.111567 30.271423 119.764732 7.509985 -1.175924 14.010124 2.577616 -18.598949 
-6.539153 23.676796 35.975769 71.306648 0.000001 -0.000001 47.788952 -0.917067 -0.811163 -24.089983 -0.639929 -0.827719 -17.940287 0.359322 -0.001728 -29.239712 0.212120 -0.001250 -10.354639 -9.920411 -4.451147 -42.705975 -64.104294 -36.677399 -40.767563 5.610097 54.071732 41.042484 0.684805 6.048956 13.043813 8.754037 -4.039391 40.490646 61.407459 -37.556183 37.889324 -13.713361 51.184597 -36.047432 -0.770228 5.856306 -105.462448 17.664122 -29.931753 119.766464 -7.589187 1.165075 14.086147 -2.727054 19.428505 -105.127159 -17.111570 30.271423 119.764732 7.509985 -1.175924 14.010124 2.577616 -18.598949 
